<?xml version="1.0" encoding="iso-8859-1"?>
<!-- Generator: Adobe Illustrator 19.0.0, SVG Export Plug-In . SVG Version: 6.00 Build 0)  -->
<svg version="1.1" id="Capa_1" xmlns="http://www.w3.org/2000/svg" xmlns:xlink="http://www.w3.org/1999/xlink" x="0px" y="0px"
	 viewBox="0 0 496.485 496.485" style="enable-background:new 0 0 496.485 496.485;" xml:space="preserve">
<g>
	<circle style="fill:#F16051;" cx="164.461" cy="274.23" r="164.461"/>
	<circle style="fill:#F16051;" cx="392.533" cy="119.855" r="103.952"/>
</g>
<circle style="fill:#FFFFFF;" cx="157.479" cy="115.976" r="12.412"/>
<path style="fill:#193651;" d="M157.479,136.145c-10.861,0-20.17-9.309-20.17-20.17s9.309-20.17,20.17-20.17
	c10.861,0,20.17,9.309,20.17,20.17S168.339,136.145,157.479,136.145z M157.479,111.321c-3.103,0-5.43,2.327-5.43,5.43
	c0,3.103,2.327,5.43,5.43,5.43s5.43-2.327,5.43-5.43C162.133,113.648,159.806,111.321,157.479,111.321z"/>
<circle style="fill:#FFFFFF;" cx="199.37" cy="80.291" r="17.067"/>
<path style="fill:#193651;" d="M199.37,104.339c-13.188,0-24.824-10.861-24.824-24.824c0-13.188,10.861-24.824,24.824-24.824
	c13.188,0,24.824,10.861,24.824,24.824C224.194,93.479,213.333,104.339,199.37,104.339z M199.37,70.206
	c-5.43,0-9.309,4.655-9.309,9.309c0,5.43,4.655,9.309,9.309,9.309c4.655,0,9.309-4.655,9.309-9.309
	C209.455,74.861,204.8,70.206,199.37,70.206z"/>
<circle style="fill:#FFFFFF;" cx="252.897" cy="39.952" r="23.273"/>
<path style="fill:#193651;" d="M252.897,70.206c-17.067,0-30.255-13.964-30.255-30.255c0-17.067,13.964-30.255,30.255-30.255
	c17.067,0,30.255,13.964,30.255,30.255C283.152,57.018,269.964,70.206,252.897,70.206z M252.897,24.436
	c-8.533,0-15.515,6.982-15.515,15.515s6.982,15.515,15.515,15.515s15.515-6.982,15.515-15.515S261.43,24.436,252.897,24.436z"/>
<path style="fill:#FFFFFF;" d="M295.564,444.121l-88.436-134.982V195.879h-85.333v113.261L32.582,444.121
	C22.497,458.861,33.358,479.03,51.2,479.03h225.745C294.788,479.03,305.648,459.636,295.564,444.121z"/>
<path style="fill:#193651;" d="M276.945,486.788H51.2c-10.861,0-20.945-6.206-26.376-15.515c-5.43-10.085-4.655-20.945,1.552-30.255
	l88.436-133.43V195.879c0-3.879,3.103-7.758,7.758-7.758h85.333c3.879,0,7.758,3.103,7.758,7.758v110.933l87.661,133.43
	c6.206,9.309,6.206,20.945,1.552,30.255C297.891,480.582,287.806,486.788,276.945,486.788z M128.776,202.861v105.503
	c0,1.552-0.776,3.103-1.552,3.879L38.788,448.776c-3.103,4.655-3.103,10.085-0.776,15.515c2.327,4.655,7.758,7.758,13.188,7.758
	h225.745c5.43,0,10.861-3.103,13.188-7.758c2.327-4.655,2.327-10.861-0.776-15.515l-88.436-135.758
	c-0.776-1.552-1.552-2.327-1.552-3.879V202.861H128.776z"/>
<path style="fill:#4FBF9F;" d="M246.691,369.648c0,0-48.097-24.048-83.006,0c-42.667,29.479-82.23,0-82.23,0l-48.873,74.473
	C22.497,458.861,33.358,479.03,51.2,479.03h225.745c17.842,0,28.703-19.394,18.618-34.909L246.691,369.648z"/>
<rect x="107.055" y="154.764" style="fill:#FFFFFF;" width="114.812" height="40.339"/>
<g>
	<path style="fill:#193651;" d="M221.867,202.861H107.055c-3.879,0-7.758-3.103-7.758-7.758v-40.339
		c0-3.879,3.103-7.758,7.758-7.758h114.812c3.879,0,7.758,3.103,7.758,7.758v40.339
		C229.624,199.758,225.745,202.861,221.867,202.861z M114.036,188.121h100.073v-25.6H114.036V188.121z"/>
	<path style="fill:#193651;" d="M276.945,486.788H51.2c-10.861,0-20.945-6.206-26.376-15.515
		c-5.43-10.085-4.655-20.945,1.552-30.255l89.212-135.758c2.327-3.103,6.982-4.655,10.085-2.327
		c3.103,2.327,4.655,6.982,2.327,10.085L38.788,448.776c-3.103,4.655-3.103,10.085-0.776,15.515
		c2.327,4.655,7.758,7.758,13.188,7.758h225.745c5.43,0,10.861-3.103,13.188-7.758c2.327-4.655,2.327-10.861-0.776-15.515
		l-88.436-135.758c-2.327-3.103-1.552-7.758,2.327-10.085c3.103-2.327,7.758-1.552,10.085,2.327l88.436,135.758
		c6.206,9.309,6.206,20.945,1.552,30.255C297.891,480.582,287.806,486.788,276.945,486.788z"/>
	<path style="fill:#193651;" d="M144.291,232.339h-22.497c-3.879,0-7.758-3.103-7.758-7.758c0-3.879,3.103-7.758,7.758-7.758h22.497
		c3.879,0,7.758,3.103,7.758,7.758C152.048,229.236,148.17,232.339,144.291,232.339z"/>
	<path style="fill:#193651;" d="M163.685,263.37h-42.667c-3.879,0-7.758-3.103-7.758-7.758c0-3.879,3.103-7.758,7.758-7.758h42.667
		c3.879,0,7.758,3.103,7.758,7.758C171.442,260.267,168.339,263.37,163.685,263.37z"/>
	<path style="fill:#193651;" d="M144.291,294.4h-22.497c-3.879,0-7.758-3.103-7.758-7.758c0-3.879,3.103-7.758,7.758-7.758h22.497
		c3.879,0,7.758,3.103,7.758,7.758C152.048,291.297,148.17,294.4,144.291,294.4z"/>
</g>
<rect x="353.745" y="119.855" style="fill:#FFFFFF;" width="85.333" height="287.806"/>
<path style="fill:#193651;" d="M439.079,414.642h-85.333c-3.879,0-7.758-3.103-7.758-7.758v-287.03c0-3.879,3.103-7.758,7.758-7.758
	h85.333c3.879,0,7.758,3.103,7.758,7.758v287.806C446.836,411.539,442.958,414.642,439.079,414.642z M361.503,399.903h70.594
	V126.836h-70.594V399.903z"/>
<polyline style="fill:#FDBF5E;" points="353.745,220.703 353.745,407.661 439.079,407.661 439.079,220.703 "/>
<path style="fill:#193651;" d="M439.079,414.642h-85.333c-3.879,0-7.758-3.103-7.758-7.758V220.703c0-3.879,3.103-7.758,7.758-7.758
	c3.879,0,7.758,3.103,7.758,7.758v179.2h70.594v-179.2c0-3.879,3.103-7.758,7.758-7.758c3.879,0,7.758,3.103,7.758,7.758v186.958
	C446.836,411.539,442.958,414.642,439.079,414.642z"/>
<rect x="339.006" y="78.739" style="fill:#FFFFFF;" width="114.812" height="40.339"/>
<g>
	<path style="fill:#193651;" d="M453.818,126.836H339.006c-3.879,0-7.758-3.103-7.758-7.758V78.739c0-3.879,3.103-7.758,7.758-7.758
		h114.812c3.879,0,7.758,3.103,7.758,7.758v40.339C461.576,123.733,458.473,126.836,453.818,126.836z M345.988,112.097h100.073
		v-25.6H345.988V112.097z"/>
	<path style="fill:#193651;" d="M392.533,167.176h-38.788c-3.879,0-7.758-3.103-7.758-7.758c0-3.879,3.103-7.758,7.758-7.758h38.788
		c3.879,0,7.758,3.103,7.758,7.758C400.291,163.297,397.188,167.176,392.533,167.176z"/>
	<path style="fill:#193651;" d="M377.794,208.291h-24.048c-3.879,0-7.758-3.103-7.758-7.758c0-3.879,3.103-7.758,7.758-7.758h24.048
		c3.879,0,7.758,3.103,7.758,7.758C385.552,205.188,381.673,208.291,377.794,208.291z"/>
	<path style="fill:#193651;" d="M392.533,250.182h-38.788c-3.879,0-7.758-3.103-7.758-7.758c0-3.879,3.103-7.758,7.758-7.758h38.788
		c3.879,0,7.758,3.103,7.758,7.758C400.291,247.079,397.188,250.182,392.533,250.182z"/>
	<path style="fill:#193651;" d="M377.794,292.073h-24.048c-3.879,0-7.758-3.103-7.758-7.758c0-3.879,3.103-7.758,7.758-7.758h24.048
		c3.879,0,7.758,3.103,7.758,7.758C385.552,288.194,381.673,292.073,377.794,292.073z"/>
	<path style="fill:#193651;" d="M392.533,333.188h-38.788c-3.879,0-7.758-3.103-7.758-7.758c0-3.879,3.103-7.758,7.758-7.758h38.788
		c3.879,0,7.758,3.103,7.758,7.758C400.291,330.085,397.188,333.188,392.533,333.188z"/>
	<path style="fill:#193651;" d="M377.794,375.079h-24.048c-3.879,0-7.758-3.103-7.758-7.758c0-3.879,3.103-7.758,7.758-7.758h24.048
		c3.879,0,7.758,3.103,7.758,7.758C385.552,371.976,381.673,375.079,377.794,375.079z"/>
</g>
<g>
	<rect x="197.042" y="415.418" style="fill:#193651;" width="14.739" height="14.739"/>
	<rect x="156.703" y="415.418" style="fill:#193651;" width="14.739" height="14.739"/>
	<rect x="116.364" y="415.418" style="fill:#193651;" width="14.739" height="14.739"/>
</g>
<g>
</g>
<g>
</g>
<g>
</g>
<g>
</g>
<g>
</g>
<g>
</g>
<g>
</g>
<g>
</g>
<g>
</g>
<g>
</g>
<g>
</g>
<g>
</g>
<g>
</g>
<g>
</g>
<g>
</g>
</svg>
