<svg id="Flat" height="512" viewBox="0 0 512 512" width="512" xmlns="http://www.w3.org/2000/svg"><path d="m160 72.001h216v384h-216z" fill="#d0d2d4"/><g fill="#3397e8"><path d="m408.08 464a8 8 0 0 1 -.08-16h.08a8 8 0 0 1 0 16z"/><path d="m408.08 432a8 8 0 0 1 -.08-16h.08a8 8 0 0 1 0 16z"/><path d="m408.08 400a8 8 0 0 1 -.08-16h.08a8 8 0 0 1 0 16z"/><path d="m408.08 368a8 8 0 0 1 -.08-16h.08a8 8 0 0 1 0 16z"/><path d="m408.08 336a8 8 0 0 1 -.08-16h.08a8 8 0 0 1 0 16z"/><path d="m408.08 304a8 8 0 0 1 -.08-16h.08a8 8 0 0 1 0 16z"/><path d="m408.08 272a8 8 0 0 1 -.08-16h.08a8 8 0 0 1 0 16z"/><path d="m408.08 240a8 8 0 0 1 -.08-16h.08a8 8 0 0 1 0 16z"/><path d="m408.08 80a8 8 0 0 1 -.08-16h.08a8 8 0 0 1 0 16z"/><path d="m408.08 208a8 8 0 0 1 -.08-16h.08a8 8 0 0 1 0 16z"/><path d="m408.08 176a8 8 0 0 1 -.08-16h.08a8 8 0 0 1 0 16z"/><path d="m408.08 144a8 8 0 0 1 -.08-16h.08a8 8 0 0 1 0 16z"/><path d="m408.08 112a8 8 0 0 1 -.08-16h.08a8 8 0 0 1 0 16z"/></g><path d="m488 24a0 0 0 0 1 0 0v464a0 0 0 0 1 0 0 48 48 0 0 1 -48-48v-368a48 48 0 0 1 48-48z" fill="#67c5e0"/><path d="m24 168h272v224h-272z" fill="#7e8589"/><path d="m56 168a48 48 0 0 1 48-48h112a48 48 0 0 1 48 48z" fill="#f0dfce"/><path d="m200 64c0 22.091-17.909 56-40 56s-40-33.909-40-56a40 40 0 0 1 80 0z" fill="#f0dfce"/><path d="m192 328a32 32 0 0 1 -64 0z" fill="#e9eef2"/><path d="m176 392v72a24 24 0 0 0 48 0v-72z" fill="#f0dfce"/><path d="m96 392v72a24 24 0 0 0 48 0v-72z" fill="#f0dfce"/><path d="m96 304a8 8 0 0 1 -8-8 11.78 11.78 0 0 1 3.585-8.483c7.322-7.307 24.607-7.608 59.905-7.528q4.174.008 8.51.011a8 8 0 0 1 0 16q-4.344 0-8.542-.011c-17.68-.042-41.554-.083-47.87 2.553a8.005 8.005 0 0 1 -7.588 5.458z" fill="#e9eef2"/><path d="m224 304a8.005 8.005 0 0 1 -7.588-5.458c-6.315-2.635-30.186-2.6-47.87-2.553q-4.192.011-8.542.011a8 8 0 0 1 0-16q4.329 0 8.51-.011c35.279-.075 52.585.22 59.905 7.528a11.78 11.78 0 0 1 3.585 8.483 8 8 0 0 1 -8 8z" fill="#e9eef2"/><path d="m96 224a8 8 0 0 1 -8-8 11.78 11.78 0 0 1 3.585-8.483c7.322-7.307 24.607-7.609 59.905-7.528q4.174.007 8.51.011a8 8 0 0 1 0 16q-4.344 0-8.542-.011c-17.68-.038-41.554-.083-47.87 2.553a8.005 8.005 0 0 1 -7.588 5.458z" fill="#e9eef2"/><path d="m80 264a8 8 0 0 1 -8-8 11.371 11.371 0 0 1 3.429-8.069c7.732-7.72 28.267-8.018 73.926-7.942q5.225.011 10.645.011a8 8 0 0 1 0 16q-5.427 0-10.67-.011c-24.392-.047-54.441-.086-61.907 3a8 8 0 0 1 -7.423 5.011z" fill="#e9eef2"/><path d="m160 336a8 8 0 0 1 -8-8v-128a8 8 0 0 1 16 0v128a8 8 0 0 1 -8 8z" fill="#e9eef2"/><path d="m224 224a8.005 8.005 0 0 1 -7.588-5.458c-6.315-2.635-30.186-2.594-47.87-2.553q-4.192.011-8.542.011a8 8 0 0 1 0-16q4.329 0 8.51-.011c35.279-.079 52.585.22 59.905 7.528a11.78 11.78 0 0 1 3.585 8.483 8 8 0 0 1 -8 8z" fill="#e9eef2"/><path d="m240 264a8 8 0 0 1 -7.423-5.011c-7.466-3.087-37.526-3.044-61.907-3q-5.235.011-10.67.011a8 8 0 0 1 0-16q5.413 0 10.645-.011c45.688-.075 66.195.221 73.926 7.942a11.371 11.371 0 0 1 3.429 8.069 8 8 0 0 1 -8 8z" fill="#e9eef2"/></svg>